<?xml version="1.0" encoding="UTF-8"?>
<svg xmlns="http://www.w3.org/2000/svg" xmlns:xlink="http://www.w3.org/1999/xlink" width="32px" height="32px" viewBox="0 0 32 32" version="1.1">
<g id="surface1">
<path style=" stroke:none;fill-rule:nonzero;fill:rgb(0%,0%,0%);fill-opacity:1;" d="M 24.816406 22.179688 C 25.578125 21.484375 26.097656 20.632812 26.644531 19.753906 C 27.382812 21.207031 27.320312 24.75 26.09375 25.875 C 25.863281 25.597656 25.835938 25.191406 25.53125 24.984375 C 25.375 24.972656 25.339844 25.085938 25.285156 25.171875 C 24.535156 26.378906 23.449219 27.214844 22.234375 27.898438 C 20.652344 28.789062 19.054688 29.65625 17.617188 30.78125 C 17.28125 31.042969 16.972656 31.335938 16.699219 31.660156 C 16.566406 31.820312 16.429688 31.914062 16.257812 31.714844 C 15.015625 30.3125 13.394531 29.4375 11.800781 28.542969 C 10.140625 27.605469 8.484375 26.695312 7.492188 24.9375 C 7.082031 25.140625 7.074219 25.589844 6.820312 25.851562 C 5.601562 24.890625 5.507812 21.101562 6.265625 19.761719 C 6.78125 20.550781 7.25 21.34375 7.902344 22.003906 C 8.539062 22.648438 9.3125 23.121094 10.109375 23.605469 C 9.722656 24.078125 9.160156 24.007812 8.691406 24.265625 C 9.492188 25.09375 10.425781 25.566406 11.527344 25.695312 C 11.871094 25.734375 12.226562 25.722656 12.570312 25.699219 C 13.574219 25.625 14.210938 25.078125 14.492188 24.054688 C 14.753906 23.101562 14.875 22.125 14.964844 21.148438 C 15.226562 18.265625 15.269531 15.375 15.269531 12.480469 C 15.269531 12.019531 15.121094 11.75 14.699219 11.574219 C 13.738281 11.183594 12.730469 10.992188 11.710938 10.851562 C 11.488281 10.824219 11.351562 10.929688 11.214844 11.09375 C 10.8125 11.566406 10.195312 11.691406 9.648438 11.4375 C 9.183594 11.222656 8.851562 10.671875 8.898438 10.1875 C 8.953125 9.59375 9.375 9.121094 9.992188 9.011719 C 10.496094 8.921875 10.914062 9.097656 11.234375 9.5 C 11.359375 9.65625 11.46875 9.808594 11.707031 9.785156 C 12.652344 9.691406 13.617188 9.722656 14.535156 9.429688 C 15.265625 9.195312 15.5 8.769531 15.273438 8.035156 C 15.097656 7.457031 14.875 6.929688 14.367188 6.515625 C 13.324219 5.660156 13.027344 4.128906 13.578125 2.910156 C 14.164062 1.617188 15.433594 0.90625 16.867188 1.070312 C 18.1875 1.21875 19.335938 2.273438 19.546875 3.609375 C 19.738281 4.835938 19.347656 5.859375 18.378906 6.683594 C 17.792969 7.1875 17.566406 7.902344 17.585938 8.667969 C 17.59375 9.019531 17.851562 9.238281 18.167969 9.355469 C 19.164062 9.734375 20.21875 9.699219 21.257812 9.78125 C 21.503906 9.800781 21.578125 9.582031 21.703125 9.441406 C 22.164062 8.933594 22.929688 8.84375 23.476562 9.238281 C 24.023438 9.632812 24.164062 10.378906 23.796875 10.976562 C 23.359375 11.695312 22.328125 11.773438 21.726562 11.113281 C 21.558594 10.929688 21.398438 10.816406 21.144531 10.855469 C 20.171875 11 19.207031 11.175781 18.28125 11.539062 C 17.839844 11.710938 17.636719 11.96875 17.636719 12.488281 C 17.644531 15.019531 17.671875 17.546875 17.859375 20.070312 C 17.953125 21.378906 18.054688 22.695312 18.394531 23.972656 C 18.703125 25.132812 19.367188 25.667969 20.570312 25.71875 C 21.980469 25.785156 23.175781 25.308594 24.21875 24.296875 C 23.78125 23.984375 23.179688 24.097656 22.800781 23.617188 C 23.484375 23.148438 24.210938 22.773438 24.816406 22.179688 M 8.4375 24.578125 C 8.148438 24.179688 7.859375 23.78125 7.570312 23.382812 C 7.789062 23.855469 8.023438 24.320312 8.480469 24.691406 C 9.871094 26.199219 11.570312 26.976562 13.640625 26.902344 C 14.203125 26.882812 14.621094 26.628906 14.957031 26.207031 C 15.238281 25.855469 15.398438 25.449219 15.515625 25.023438 C 15.804688 23.964844 15.914062 22.878906 15.960938 21.792969 C 16.050781 19.660156 16.097656 17.527344 16.164062 15.390625 C 16.171875 15.222656 16.125 15.027344 16.351562 14.839844 C 16.445312 18.125 16.25 21.351562 16.320312 24.578125 C 16.453125 19.734375 16.445312 14.890625 16.4375 10.042969 C 16.394531 10.136719 16.398438 10.226562 16.394531 10.316406 C 16.378906 10.769531 16.507812 11.261719 15.953125 11.542969 C 15.792969 11.625 15.75 11.867188 15.738281 12.070312 C 15.714844 12.433594 15.667969 12.796875 15.667969 13.15625 C 15.664062 16.351562 15.601562 19.546875 15.285156 22.726562 C 15.203125 23.554688 15.109375 24.382812 14.722656 25.144531 C 14.375 25.832031 13.828125 26.246094 13.050781 26.296875 C 11.421875 26.402344 9.96875 25.964844 8.75 24.835938 C 8.664062 24.757812 8.554688 24.703125 8.4375 24.578125 M 18.265625 3.929688 C 18.117188 3.144531 17.578125 2.53125 16.898438 2.40625 C 16.101562 2.257812 15.429688 2.472656 14.945312 3.152344 C 14.515625 3.75 14.507812 4.53125 14.902344 5.15625 C 15.070312 5.417969 15.230469 5.546875 15.554688 5.328125 C 16.171875 4.917969 16.820312 4.953125 17.425781 5.359375 C 17.648438 5.507812 17.773438 5.464844 17.914062 5.273438 C 18.191406 4.894531 18.320312 4.46875 18.265625 3.929688 M 16.0625 30.695312 C 16.347656 30.832031 16.328125 30.621094 16.328125 30.457031 C 16.332031 29.230469 16.332031 28.003906 16.332031 26.78125 C 16.308594 27.296875 16.222656 27.804688 16.078125 28.300781 C 15.820312 29.164062 15.230469 29.472656 14.367188 29.21875 C 13.976562 29.105469 13.601562 28.964844 13.226562 28.808594 C 14.148438 29.441406 15.125 29.980469 16.0625 30.695312 M 25.921875 22.472656 C 25.914062 22.449219 25.90625 22.425781 25.898438 22.402344 C 25.886719 22.410156 25.871094 22.417969 25.863281 22.429688 C 25.792969 22.5625 25.722656 22.695312 25.652344 22.828125 C 24.730469 24.574219 23.433594 25.847656 21.410156 26.195312 C 20.816406 26.300781 20.210938 26.359375 19.582031 26.445312 C 19.78125 26.632812 20 26.632812 20.207031 26.632812 C 21.273438 26.628906 22.269531 26.335938 23.199219 25.832031 C 24.550781 25.097656 25.261719 23.832031 25.921875 22.472656 M 7.699219 22.347656 C 7.425781 22.039062 7.15625 21.734375 6.886719 21.425781 C 7.011719 21.75 7.160156 22.0625 7.347656 22.347656 C 7.585938 22.714844 7.839844 23.070312 8.113281 23.410156 C 8.480469 23.859375 8.785156 23.898438 9.339844 23.585938 C 8.730469 23.273438 8.199219 22.882812 7.699219 22.347656 M 25.519531 22.386719 C 25.628906 22.183594 25.738281 21.980469 25.851562 21.777344 C 25.125 22.46875 24.421875 23.152344 23.433594 23.632812 C 23.960938 23.859375 24.324219 23.855469 24.65625 23.507812 C 24.96875 23.179688 25.238281 22.820312 25.519531 22.386719 M 17.332031 16.414062 C 17.3125 15.082031 17.28125 13.75 17.277344 12.417969 C 17.273438 12.050781 17.210938 11.738281 16.96875 11.539062 C 17.242188 14 17.148438 16.535156 17.394531 19.046875 C 17.332031 18.199219 17.339844 17.351562 17.332031 16.414062 M 15.953125 6.679688 C 15.867188 6.332031 15.9375 5.972656 15.933594 5.621094 C 15.710938 5.605469 15.59375 5.726562 15.558594 5.867188 C 15.355469 6.679688 15.363281 7.476562 15.792969 8.132812 C 15.746094 7.726562 15.84375 7.238281 15.953125 6.679688 M 14.378906 10.25 C 14.234375 10.246094 14.089844 10.167969 13.859375 10.328125 C 14.488281 10.402344 15.03125 10.46875 15.578125 10.519531 C 16.09375 10.570312 16.144531 10.511719 16.105469 9.917969 C 15.609375 10.347656 15.011719 10.199219 14.378906 10.25 M 9.4375 9.699219 C 9.4375 9.964844 9.5625 10.128906 9.832031 10.144531 C 10.035156 10.15625 10.175781 10.039062 10.226562 9.84375 C 10.277344 9.640625 10.1875 9.480469 10 9.410156 C 9.761719 9.324219 9.554688 9.363281 9.4375 9.699219 M 22.382812 9.359375 C 21.972656 9.46875 21.820312 9.710938 22 9.972656 C 22.09375 10.105469 22.230469 10.171875 22.394531 10.136719 C 22.550781 10.101562 22.667969 10.003906 22.703125 9.84375 C 22.753906 9.617188 22.652344 9.464844 22.382812 9.359375 M 17.953125 10.3125 C 17.585938 10.25 17.183594 10.359375 16.855469 10.050781 C 16.996094 10.503906 17.191406 10.542969 18.257812 10.371094 C 18.164062 10.351562 18.089844 10.339844 17.953125 10.3125 M 15.582031 9.632812 C 15.679688 9.402344 15.78125 9.175781 15.773438 8.90625 C 15.667969 9.5 15.195312 9.671875 14.722656 9.859375 C 15.011719 9.851562 15.285156 9.824219 15.582031 9.632812 M 26.011719 23.972656 C 26.0625 23.742188 26.117188 23.515625 26.167969 23.285156 C 26.152344 23.28125 26.136719 23.277344 26.117188 23.273438 C 25.964844 23.683594 25.8125 24.089844 25.65625 24.5 C 25.949219 24.417969 25.9375 24.214844 26.011719 23.972656 M 7.066406 24.433594 C 7.246094 24.589844 7.316406 24.527344 7.242188 24.324219 C 7.144531 24.058594 7.007812 23.804688 6.890625 23.542969 C 6.867188 23.550781 6.84375 23.558594 6.824219 23.566406 C 6.898438 23.839844 6.96875 24.109375 7.066406 24.433594 M 18.101562 9.84375 C 17.835938 9.800781 17.625 9.574219 17.261719 9.558594 C 17.59375 9.988281 18.023438 9.820312 18.375 9.890625 C 18.304688 9.878906 18.234375 9.863281 18.101562 9.84375 M 20.148438 28.507812 C 19.726562 28.769531 19.257812 28.953125 18.882812 29.285156 C 19.328125 29.0625 19.761719 28.820312 20.191406 28.570312 C 20.199219 28.566406 20.1875 28.527344 20.148438 28.507812 Z M 20.148438 28.507812 "/>
</g>
</svg>
